<svg width="64" height="64" viewBox="0 0 64 64" xmlns="http://www.w3.org/2000/svg" aria-label="LogicStamp Logo">
  <defs>
    <!-- Subtle glow halo around cube -->
    <radialGradient id="ls_halo" cx="50%" cy="50%" r="50%">
      <stop offset="0%" stop-color="#9A56FF" stop-opacity="0.35" />
      <stop offset="60%" stop-color="#9A56FF" stop-opacity="0.12" />
      <stop offset="100%" stop-color="#9A56FF" stop-opacity="0" />
    </radialGradient>

    <!-- Enhanced cube face gradients -->
    <linearGradient id="ls_faceTop" x1="0%" y1="0%" x2="100%" y2="100%">
      <stop offset="0%" stop-color="#DDD6FE" stop-opacity="0.95" />
      <stop offset="50%" stop-color="#C4B5FD" stop-opacity="0.9" />
      <stop offset="100%" stop-color="#A855F7" stop-opacity="1" />
    </linearGradient>

    <linearGradient id="ls_faceLeft" x1="0%" y1="0%" x2="100%" y2="100%">
      <stop offset="0%" stop-color="#8B5CF6" />
      <stop offset="50%" stop-color="#7C3AED" />
      <stop offset="100%" stop-color="#6D28D9" />
    </linearGradient>

    <linearGradient id="ls_faceRight" x1="0%" y1="0%" x2="100%" y2="100%">
      <stop offset="0%" stop-color="#C4B5FD" />
      <stop offset="50%" stop-color="#A855F7" />
      <stop offset="100%" stop-color="#9333EA" />
    </linearGradient>

  </defs>

  <!-- Subtle glow halo around the cube -->
  <circle
    cx="32"
    cy="32"
    r="31"
    fill="url(#ls_halo)"
  />

  <!-- CUBE - main logo element -->
  <g>
    <!-- Top face with enhanced edges -->
    <polygon
      points="32,2 6,14 32,28 58,14"
      fill="url(#ls_faceTop)"
      stroke="rgba(255,255,255,0.5)"
      stroke-width="1"
    />

    <!-- Left face -->
    <polygon
      points="6,14 6,50 32,62 32,28"
      fill="url(#ls_faceLeft)"
      stroke="rgba(255,255,255,0.3)"
      stroke-width="1"
    />

    <!-- Right face -->
    <polygon
      points="58,14 58,50 32,62 32,28"
      fill="url(#ls_faceRight)"
      stroke="rgba(255,255,255,0.35)"
      stroke-width="1"
    />

    <!-- Enhanced grid on cube faces -->
    <g stroke="rgba(255,255,255,0.4)" stroke-width="0.8">
      <!-- Vertical grid lines -->
      <line x1="15" y1="16" x2="15" y2="48" />
      <line x1="32" y1="18" x2="32" y2="50" />
      <line x1="49" y1="16" x2="49" y2="48" />

      <!-- Horizontal grid lines -->
      <line x1="6" y1="18" x2="58" y2="18" />
      <line x1="6" y1="24" x2="58" y2="24" />
      <line x1="6" y1="30" x2="58" y2="30" />
      <line x1="6" y1="36" x2="58" y2="36" />
      <line x1="6" y1="42" x2="58" y2="42" />
    </g>
  </g>
</svg>
