<svg
  viewBox="0 0 64 64"
  xmlns="http://www.w3.org/2000/svg"
  aria-label="LogicStamp Logo"
>
  <defs>
    <!-- Subtle glow halo around cube -->
    <radialGradient id="ls_halo" cx="50%" cy="50%" r="50%">
      <stop offset="0%" stop-color="#9A56FF" stop-opacity="0.4" />
      <stop offset="60%" stop-color="#9A56FF" stop-opacity="0.15" />
      <stop offset="100%" stop-color="#9A56FF" stop-opacity="0" />
    </radialGradient>

    <!-- Enhanced cube face gradients -->
    <linearGradient id="ls_faceTop" x1="0%" y1="0%" x2="100%" y2="100%">
      <stop offset="0%" stop-color="#DDD6FE" stop-opacity="0.95" />
      <stop offset="50%" stop-color="#C4B5FD" stop-opacity="0.9" />
      <stop offset="100%" stop-color="#A855F7" stop-opacity="1" />
    </linearGradient>

    <linearGradient id="ls_faceLeft" x1="0%" y1="0%" x2="100%" y2="100%">
      <stop offset="0%" stop-color="#8B5CF6" />
      <stop offset="50%" stop-color="#7C3AED" />
      <stop offset="100%" stop-color="#6D28D9" />
    </linearGradient>

    <linearGradient id="ls_faceRight" x1="0%" y1="0%" x2="100%" y2="100%">
      <stop offset="0%" stop-color="#C4B5FD" />
      <stop offset="50%" stop-color="#A855F7" />
      <stop offset="100%" stop-color="#9333EA" />
    </linearGradient>

  </defs>

  <!-- Subtle glow halo around the cube -->
  <circle 
    cx="32" 
    cy="32" 
    r="30" 
    fill="url(#ls_halo)" 
  />

  <!-- CUBE - main logo element -->
  <g>
    <!-- Top face with enhanced edges -->
    <polygon
      points="32,8 14,18 32,28 50,18"
      fill="url(#ls_faceTop)"
      stroke="rgba(255,255,255,0.5)"
      stroke-width="1"
    />

    <!-- Left face -->
    <polygon
      points="14,18 14,40 32,48 32,28"
      fill="url(#ls_faceLeft)"
      stroke="rgba(255,255,255,0.3)"
      stroke-width="1"
    />

    <!-- Right face -->
    <polygon
      points="50,18 50,40 32,48 32,28"
      fill="url(#ls_faceRight)"
      stroke="rgba(255,255,255,0.35)"
      stroke-width="1"
    />

    <!-- Enhanced grid on cube faces -->
    <g stroke="rgba(255,255,255,0.4)" stroke-width="0.8">
      <!-- Vertical grid lines -->
      <line x1="21" y1="20" x2="21" y2="42" />
      <line x1="32" y1="22" x2="32" y2="44" />
      <line x1="43" y1="20" x2="43" y2="42" />

      <!-- Horizontal grid lines -->
      <line x1="14" y1="22" x2="50" y2="22" />
      <line x1="14" y1="26" x2="50" y2="26" />
      <line x1="14" y1="30" x2="50" y2="30" />
      <line x1="14" y1="34" x2="50" y2="34" />
      <line x1="14" y1="38" x2="50" y2="38" />
    </g>
  </g>
</svg>

