<svg
  xmlns="http://www.w3.org/2000/svg"
  viewBox="0 0 120 120"
>
  <defs>
    <linearGradient id="g1" x1="0" y1="0" x2="1" y2="1">
      <stop offset="0%" stop-color="#ff44ff"/>
      <stop offset="50%" stop-color="#a24bff"/>
      <stop offset="100%" stop-color="#3f87ff"/>
    </linearGradient>

    <linearGradient id="g2" x1="0" y1="0" x2="1" y2="1">
      <stop offset="0%" stop-color="#7f4bff"/>
      <stop offset="60%" stop-color="#4a6aff"/>
      <stop offset="100%" stop-color="#21d2ff"/>
    </linearGradient>

    <linearGradient id="eye" x1="0" y1="0" x2="1" y2="1">
      <stop offset="0%" stop-color="#6afff4"/>
      <stop offset="100%" stop-color="#00caff"/>
    </linearGradient>
  </defs>

  <g
    transform="translate(10,4)"
    fill="none"
    stroke="#05022a"
    stroke-width="3.2"
    stroke-linejoin="round"
    stroke-linecap="round"
  >

    <!-- Bigger centered ears -->
    <polygon fill="url(#g1)" points="42,0 32,32 52,32"/>
    <polygon fill="url(#g1)" points="78,0 68,32 88,32"/>

    <!-- Ear inner facets -->
    <polygon fill="url(#g1)" points="42,0 52,32 36,30"/>
    <polygon fill="url(#g1)" points="78,0 68,32 84,30"/>

    <!-- Forehead -->
    <polygon fill="url(#g1)" points="32,36 60,20 88,36 60,50"/>

    <!-- Brow shadows -->
    <polygon fill="url(#g1)" points="32,36 46,48 40,56 24,48"/>
    <polygon fill="url(#g1)" points="88,36 74,48 80,56 96,48"/>

    <!-- BIGGER, WIDER, SHARPER EYES -->
    <polygon fill="url(#eye)" points="46,46 30,58 50,60 60,50"/>
    <polygon fill="url(#eye)" points="74,46 90,58 70,60 60,50"/>

    <!-- Cheeks -->
    <polygon fill="url(#g1)" points="32,36 20,52 34,72 48,54"/>
    <polygon fill="url(#g1)" points="88,36 100,52 86,72 72,54"/>

    <!-- Midface -->
    <polygon fill="url(#g2)" points="48,54 60,50 72,54 60,66"/>
    <polygon fill="url(#g2)" points="34,72 48,54 60,66 48,80"/>
    <polygon fill="url(#g2)" points="86,72 72,54 60,66 72,80"/>

    <!-- Muzzle -->
    <polygon fill="url(#g2)" points="48,80 60,66 72,80 60,98"/>

    <!-- Nose -->
    <polygon fill="url(#g1)" points="54,84 66,84 60,92"/>

    <!-- Jaw -->
    <polygon fill="url(#g2)"
      points="26,68 34,90 60,108 86,90 94,68 86,72 60,94 34,72"
    />
  </g>
</svg>
